<mxfile host="app.diagrams.net" agent="Mozilla/5.0 (Windows NT 10.0; Win64; x64) AppleWebKit/537.36 (KHTML, like Gecko) Chrome/131.0.0.0 Safari/537.36" version="24.9.2">
  <diagram name="Side-1" id="5QCO7v8JLTxfKbGBEfMo">
    <mxGraphModel dx="1430" dy="857" grid="1" gridSize="10" guides="1" tooltips="1" connect="1" arrows="1" fold="1" page="1" pageScale="1" pageWidth="10" pageHeight="10" math="0" shadow="0">
      <root>
        <mxCell id="0" />
        <mxCell id="1" parent="0" />
        <mxCell id="Wkr9AaJUSfkDFXkvBabM-64" value="" style="edgeStyle=orthogonalEdgeStyle;rounded=0;orthogonalLoop=1;jettySize=auto;html=1;" edge="1" parent="1" source="Wkr9AaJUSfkDFXkvBabM-2" target="Wkr9AaJUSfkDFXkvBabM-9">
          <mxGeometry relative="1" as="geometry" />
        </mxCell>
        <mxCell id="Wkr9AaJUSfkDFXkvBabM-2" value="ID:4 Start&lt;div&gt;&lt;br&gt;&lt;/div&gt;" style="ellipse;whiteSpace=wrap;html=1;" vertex="1" parent="1">
          <mxGeometry x="345" y="130" width="120" height="80" as="geometry" />
        </mxCell>
        <mxCell id="Wkr9AaJUSfkDFXkvBabM-16" style="edgeStyle=orthogonalEdgeStyle;rounded=0;orthogonalLoop=1;jettySize=auto;html=1;entryX=0;entryY=0.5;entryDx=0;entryDy=0;" edge="1" parent="1" source="Wkr9AaJUSfkDFXkvBabM-4" target="Wkr9AaJUSfkDFXkvBabM-9">
          <mxGeometry relative="1" as="geometry" />
        </mxCell>
        <mxCell id="Wkr9AaJUSfkDFXkvBabM-4" value="&lt;span style=&quot;background-color: initial;&quot;&gt;D&lt;/span&gt;&lt;div&gt;&lt;span style=&quot;background-color: initial;&quot;&gt;Main&lt;/span&gt;&lt;/div&gt;" style="ellipse;whiteSpace=wrap;html=1;aspect=fixed;" vertex="1" parent="1">
          <mxGeometry x="160" y="230" width="80" height="80" as="geometry" />
        </mxCell>
        <mxCell id="Wkr9AaJUSfkDFXkvBabM-40" value="" style="edgeStyle=orthogonalEdgeStyle;rounded=0;orthogonalLoop=1;jettySize=auto;html=1;" edge="1" parent="1" source="Wkr9AaJUSfkDFXkvBabM-9" target="Wkr9AaJUSfkDFXkvBabM-39">
          <mxGeometry relative="1" as="geometry" />
        </mxCell>
        <mxCell id="Wkr9AaJUSfkDFXkvBabM-9" value="Kontakt og beregn GPS Placering, Retning og hastighed" style="rounded=0;whiteSpace=wrap;html=1;" vertex="1" parent="1">
          <mxGeometry x="320" y="240" width="170" height="60" as="geometry" />
        </mxCell>
        <mxCell id="Wkr9AaJUSfkDFXkvBabM-58" style="edgeStyle=orthogonalEdgeStyle;rounded=0;orthogonalLoop=1;jettySize=auto;html=1;entryX=0;entryY=0.5;entryDx=0;entryDy=0;" edge="1" parent="1" source="Wkr9AaJUSfkDFXkvBabM-17" target="Wkr9AaJUSfkDFXkvBabM-9">
          <mxGeometry relative="1" as="geometry">
            <Array as="points">
              <mxPoint x="280" y="635" />
              <mxPoint x="280" y="270" />
            </Array>
          </mxGeometry>
        </mxCell>
        <mxCell id="Wkr9AaJUSfkDFXkvBabM-59" value="Nej" style="edgeLabel;html=1;align=center;verticalAlign=middle;resizable=0;points=[];" vertex="1" connectable="0" parent="Wkr9AaJUSfkDFXkvBabM-58">
          <mxGeometry x="-0.8522" y="1" relative="1" as="geometry">
            <mxPoint x="24" y="-16" as="offset" />
          </mxGeometry>
        </mxCell>
        <mxCell id="Wkr9AaJUSfkDFXkvBabM-17" value="Er der gået&amp;nbsp;&lt;div&gt;3 minutter?&lt;/div&gt;" style="rhombus;whiteSpace=wrap;html=1;" vertex="1" parent="1">
          <mxGeometry x="335" y="565" width="140" height="140" as="geometry" />
        </mxCell>
        <mxCell id="Wkr9AaJUSfkDFXkvBabM-57" style="edgeStyle=orthogonalEdgeStyle;rounded=0;orthogonalLoop=1;jettySize=auto;html=1;entryX=0.5;entryY=0;entryDx=0;entryDy=0;" edge="1" parent="1" source="Wkr9AaJUSfkDFXkvBabM-21" target="Wkr9AaJUSfkDFXkvBabM-17">
          <mxGeometry relative="1" as="geometry">
            <Array as="points">
              <mxPoint x="560" y="520" />
              <mxPoint x="405" y="520" />
            </Array>
          </mxGeometry>
        </mxCell>
        <mxCell id="Wkr9AaJUSfkDFXkvBabM-21" value="Forsæt Timer" style="rounded=0;whiteSpace=wrap;html=1;" vertex="1" parent="1">
          <mxGeometry x="515" y="390" width="90" height="60" as="geometry" />
        </mxCell>
        <mxCell id="Wkr9AaJUSfkDFXkvBabM-53" style="edgeStyle=orthogonalEdgeStyle;rounded=0;orthogonalLoop=1;jettySize=auto;html=1;entryX=0;entryY=0.5;entryDx=0;entryDy=0;" edge="1" parent="1" source="Wkr9AaJUSfkDFXkvBabM-26" target="Wkr9AaJUSfkDFXkvBabM-33">
          <mxGeometry relative="1" as="geometry" />
        </mxCell>
        <mxCell id="Wkr9AaJUSfkDFXkvBabM-54" value="Ja" style="edgeLabel;html=1;align=center;verticalAlign=middle;resizable=0;points=[];" vertex="1" connectable="0" parent="Wkr9AaJUSfkDFXkvBabM-53">
          <mxGeometry x="-0.4098" y="4" relative="1" as="geometry">
            <mxPoint x="2" y="-16" as="offset" />
          </mxGeometry>
        </mxCell>
        <mxCell id="Wkr9AaJUSfkDFXkvBabM-62" style="edgeStyle=orthogonalEdgeStyle;rounded=0;orthogonalLoop=1;jettySize=auto;html=1;entryX=0;entryY=0.5;entryDx=0;entryDy=0;" edge="1" parent="1" source="Wkr9AaJUSfkDFXkvBabM-26" target="Wkr9AaJUSfkDFXkvBabM-9">
          <mxGeometry relative="1" as="geometry">
            <Array as="points">
              <mxPoint x="280" y="850" />
              <mxPoint x="280" y="270" />
            </Array>
          </mxGeometry>
        </mxCell>
        <mxCell id="Wkr9AaJUSfkDFXkvBabM-63" value="Nej" style="edgeLabel;html=1;align=center;verticalAlign=middle;resizable=0;points=[];" vertex="1" connectable="0" parent="Wkr9AaJUSfkDFXkvBabM-62">
          <mxGeometry x="-0.917" y="3" relative="1" as="geometry">
            <mxPoint x="18" y="-18" as="offset" />
          </mxGeometry>
        </mxCell>
        <mxCell id="Wkr9AaJUSfkDFXkvBabM-26" value="Bevæger Cyklen sig?" style="rhombus;whiteSpace=wrap;html=1;" vertex="1" parent="1">
          <mxGeometry x="335" y="780" width="140" height="140" as="geometry" />
        </mxCell>
        <mxCell id="Wkr9AaJUSfkDFXkvBabM-33" value="Seng placering til Thingsboard" style="ellipse;whiteSpace=wrap;html=1;aspect=fixed;" vertex="1" parent="1">
          <mxGeometry x="540" y="787.5" width="125" height="125" as="geometry" />
        </mxCell>
        <mxCell id="Wkr9AaJUSfkDFXkvBabM-41" style="edgeStyle=orthogonalEdgeStyle;rounded=0;orthogonalLoop=1;jettySize=auto;html=1;entryX=0;entryY=0.5;entryDx=0;entryDy=0;" edge="1" parent="1" source="Wkr9AaJUSfkDFXkvBabM-39" target="Wkr9AaJUSfkDFXkvBabM-9">
          <mxGeometry relative="1" as="geometry">
            <Array as="points">
              <mxPoint x="280" y="420" />
              <mxPoint x="280" y="270" />
            </Array>
          </mxGeometry>
        </mxCell>
        <mxCell id="Wkr9AaJUSfkDFXkvBabM-42" value="Nej" style="edgeLabel;html=1;align=center;verticalAlign=middle;resizable=0;points=[];" vertex="1" connectable="0" parent="Wkr9AaJUSfkDFXkvBabM-41">
          <mxGeometry x="-0.5852" y="1" relative="1" as="geometry">
            <mxPoint x="41" y="-16" as="offset" />
          </mxGeometry>
        </mxCell>
        <mxCell id="Wkr9AaJUSfkDFXkvBabM-49" value="" style="edgeStyle=orthogonalEdgeStyle;rounded=0;orthogonalLoop=1;jettySize=auto;html=1;" edge="1" parent="1" source="Wkr9AaJUSfkDFXkvBabM-39" target="Wkr9AaJUSfkDFXkvBabM-21">
          <mxGeometry relative="1" as="geometry" />
        </mxCell>
        <mxCell id="Wkr9AaJUSfkDFXkvBabM-50" value="Ja" style="edgeLabel;html=1;align=center;verticalAlign=middle;resizable=0;points=[];" vertex="1" connectable="0" parent="Wkr9AaJUSfkDFXkvBabM-49">
          <mxGeometry x="0.1111" y="-5" relative="1" as="geometry">
            <mxPoint x="-10" y="-20" as="offset" />
          </mxGeometry>
        </mxCell>
        <mxCell id="Wkr9AaJUSfkDFXkvBabM-39" value="Holder Cykel stille?" style="rhombus;whiteSpace=wrap;html=1;" vertex="1" parent="1">
          <mxGeometry x="335" y="350" width="140" height="140" as="geometry" />
        </mxCell>
        <mxCell id="Wkr9AaJUSfkDFXkvBabM-60" style="edgeStyle=orthogonalEdgeStyle;rounded=0;orthogonalLoop=1;jettySize=auto;html=1;entryX=0.496;entryY=0.057;entryDx=0;entryDy=0;entryPerimeter=0;" edge="1" parent="1" source="Wkr9AaJUSfkDFXkvBabM-17" target="Wkr9AaJUSfkDFXkvBabM-26">
          <mxGeometry relative="1" as="geometry">
            <Array as="points">
              <mxPoint x="560" y="635" />
              <mxPoint x="560" y="743" />
              <mxPoint x="404" y="743" />
            </Array>
          </mxGeometry>
        </mxCell>
        <mxCell id="Wkr9AaJUSfkDFXkvBabM-61" value="Ja" style="edgeLabel;html=1;align=center;verticalAlign=middle;resizable=0;points=[];" vertex="1" connectable="0" parent="Wkr9AaJUSfkDFXkvBabM-60">
          <mxGeometry x="-0.8869" y="3" relative="1" as="geometry">
            <mxPoint y="-12" as="offset" />
          </mxGeometry>
        </mxCell>
      </root>
    </mxGraphModel>
  </diagram>
</mxfile>
